<svg xmlns="http://www.w3.org/2000/svg" viewBox="53.86 48.6 512 512">
  <g id="Layer_1" transform="matrix(1, 0, 0, 1, -1314.11085, 139.314942)">
    <g id="g2990" transform="matrix(1, 0, 0, 1, 1367.969381, -90.714448)">
      <path d="M 512,256 C 512,397.3849 397.38489,512 256,512 114.6151,512 -1.47e-6,397.3849 -1.47e-6,256 -1.47e-6,114.61511 114.6151,1.34e-6 256,1.34e-6 397.38489,1.34e-6 512,114.61511 512,256 z" id="path2989" style="fill-opacity: 1; fill: rgb(10, 12, 15);"/>
      <g id="g3015" transform="matrix(1, 0, 0, 1, -0.000001, -0.000015)">
        <polygon id="polygon3962" points="389.402,450.579 420.191,117.07 91.809,117.07 122.593,450.579 255.999,486.501 " style="fill-opacity: 1; fill-rule: evenodd; fill: rgb(10, 12, 15);" transform="matrix(0.66995146,0,0,0.66995146,84.49242,84.15745)"/>
        <polygon id="polygon3968" points="364.257,428.863 389.175,144.084 255.997,144.084 255.997,457.852 256.298,457.933 " style="fill-opacity: 1; fill-rule: evenodd; fill: rgb(10, 12, 15);" transform="matrix(0.66995146,0,0,0.66995146,84.49242,84.15745)"/>
        <path d="M 150.589 137.795 L 156.7 179.424 L 262.875 178.661 L 160.519 221.818 L 163.193 263.066 L 308.323 263.066 L 304.886 317.3 L 258.292 331.431 L 210.933 318.445 L 208.26 285.982 L 166.63 285.982 L 171.977 349.764 L 257.146 374.588 L 343.843 350.527 L 354.537 221.818 L 256.382 221.818 L 358.356 178.661 L 361.411 137.413 L 150.589 137.795 Z" id="path4169" style="fill-opacity: 1; stroke: none; fill: rgb(232, 234, 237);"/>
      </g>
    </g>
    <g id="Layer_1_1_" transform="matrix(1, 0, 0, 1, 524.82972, -152.750338)"/>
  </g>
</svg>