<?xml version="1.0" encoding="utf-8"?>
<svg xmlns="http://www.w3.org/2000/svg" viewBox="0 -57.092 597.298 557.092">
  <g id="surface1" transform="matrix(1, 0, 0, 1, 42.648999, -34.546002)">
    <path style="stroke: none; fill-rule: nonzero; fill-opacity: 1; fill: rgb(10, 11, 13);" d="M 0 256 C 0 114.617 114.617 0 256 0 C 397.383 0 512 114.617 512 256 C 512 397.383 397.383 512 256 512 C 114.617 512 0 397.383 0 256 Z M 0 256"/>
    <path style="stroke: none; fill-rule: nonzero; fill-opacity: 1; fill: rgb(232, 234, 237);" d="M 204.800781 409.597656 C 233.078125 409.597656 256 386.675781 256 358.398438 L 256 307.199219 L 204.800781 307.199219 C 176.523438 307.199219 153.601562 330.121094 153.601562 358.398438 C 153.601562 386.675781 176.523438 409.597656 204.800781 409.597656 Z M 204.800781 409.597656 "/>
    <path style="stroke: none; fill-rule: nonzero; fill-opacity: 1; fill: rgb(232, 234, 237);" d="M 153.601562 256 C 153.601562 227.722656 176.523438 204.800781 204.800781 204.800781 L 256 204.800781 L 256 307.199219 L 204.800781 307.199219 C 176.523438 307.199219 153.601562 284.277344 153.601562 256 Z M 153.601562 256 "/>
    <path style="stroke: none; fill-rule: nonzero; fill-opacity: 1; fill: rgb(232, 234, 237);" d="M 153.601562 153.601562 C 153.601562 125.324219 176.523438 102.398438 204.800781 102.398438 L 256 102.398438 L 256 204.800781 L 204.800781 204.800781 C 176.523438 204.800781 153.601562 181.875 153.601562 153.601562 Z M 153.601562 153.601562 "/>
    <path style="stroke: none; fill-rule: nonzero; fill-opacity: 1; fill: rgb(232, 234, 237);" d="M 256 102.398438 L 307.199219 102.398438 C 335.476562 102.398438 358.398438 125.324219 358.398438 153.601562 C 358.398438 181.875 335.476562 204.800781 307.199219 204.800781 L 256 204.800781 Z M 256 102.398438 "/>
    <path style="stroke: none; fill-rule: nonzero; fill-opacity: 1; fill: rgb(232, 234, 237);" d="M 358.398438 256 C 358.398438 284.277344 335.476562 307.199219 307.199219 307.199219 C 278.921875 307.199219 256 284.277344 256 256 C 256 227.722656 278.921875 204.800781 307.199219 204.800781 C 335.476562 204.800781 358.398438 227.722656 358.398438 256 Z M 358.398438 256 "/>
  </g>
</svg>