<svg xmlns="http://www.w3.org/2000/svg" viewBox="90.04 90.04 319.91 319.91">
  <g id="Layer_1" transform="matrix(4.443256, 0, 0, 4.443256, -1106.373055, -817.94538)" style="">
    <circle class="st0" cx="305.266" cy="240.352" r="36" style="stroke-width: 1; fill: rgb(10, 11, 13);"/>
    <g transform="matrix(1, 0, 0, 1, 266.265566, 201.314485)">
      <path class="st46" d="M57.3,16.5H20.7c-0.8,0-1.4,0.7-1.4,1.5l2.9,37.4c0,0.6,0.4,1,1,1.2l15.4,4.9c0.3,0.1,0.6,0.1,0.8,0l15.4-4.9   c0.5-0.2,0.9-0.6,1-1.2L58.7,18C58.7,17.2,58.1,16.5,57.3,16.5z M33.4,43.1V46l5.8,1.6l5.8-1.6l0.4-6.2H27.6l-1.2-15.1h25.1   l-0.4,4.9h-19l0.6,5.3h18L49.6,50L39,53.3L28.4,50l-0.5-6.8H33.4z" style="stroke: rgb(255, 255, 255); stroke-linecap: round; stroke-linejoin: round; stroke-miterlimit: 10; stroke-width: 2px; fill: rgb(10, 11, 13);"/>
    </g>
  </g>
</svg>