<svg xmlns="http://www.w3.org/2000/svg" viewBox="77.82 77.82 344.37 344.37">
  <ellipse style="stroke: rgb(0, 0, 0); fill: rgb(10, 11, 13);" cx="250" cy="250" rx="171.685" ry="171.685"/>
  <g id="a" transform="matrix(1, 0, 0, 1, -127.643006, 8.487999)">
    <g>
      <rect class="b" width="250" height="250" rx="42.74" ry="42.74" style="stroke-width: 1; fill: rgb(10, 11, 13);" x="252.643" y="116.512"/>
      <g style="" transform="matrix(1.189188, 0, 0, 1.189188, -66.600098, -40.719906)">
        <g style="pointer-events: none;">
          <path class="c" d="M 374.753 182.662 L 337.343 182.662 L 294.373 298.282 L 327.853 298.282 L 333.433 281.012 L 376.413 281.012 L 381.993 298.282 L 416.493 298.282 L 374.763 182.662 L 374.753 182.662 Z M 354.913 252.162 L 342.743 252.162 L 354.913 214.472 L 367.083 252.162 L 354.913 252.162 Z" style="stroke-width: 1; fill: rgb(232, 234, 237);"/>
        </g>
        <rect class="c" x="420.763" y="207.252" width="30.98" height="91.03" style="stroke-width: 1; fill: rgb(232, 234, 237);"/>
        <path class="c" d="M 452.763 190.792 C 452.853 199.282 445.983 205.282 436.263 205.202 C 426.533 205.282 419.673 199.282 419.763 190.792 C 419.673 182.302 426.543 176.302 436.263 176.382 C 445.993 176.302 452.853 182.302 452.763 190.792 Z" style="stroke-width: 1; fill: rgb(232, 234, 237);"/>
      </g>
    </g>
  </g>
</svg>