<svg xmlns="http://www.w3.org/2000/svg" viewBox="135.36 27.27 630 630">
  <rect width="630" height="630" x="135.358" y="27.274" style="stroke-width: 1; fill: rgb(10, 11, 13);"/>
  <path d="M 500.084 401.178 C 512.774 421.898 529.284 437.128 558.484 437.128 C 583.014 437.128 598.684 424.868 598.684 407.928 C 598.684 387.628 582.584 380.438 555.584 368.628 L 540.784 362.278 C 498.064 344.078 469.684 321.278 469.684 273.078 C 469.684 228.678 503.514 194.878 556.384 194.878 C 594.024 194.878 621.084 207.978 640.584 242.278 L 594.484 271.878 C 584.334 253.678 573.384 246.508 556.384 246.508 C 539.044 246.508 528.054 257.508 528.054 271.878 C 528.054 289.638 539.054 296.828 564.454 307.828 L 579.254 314.168 C 629.554 335.738 657.954 357.728 657.954 407.168 C 657.954 460.468 616.084 489.668 559.854 489.668 C 504.874 489.668 469.354 463.468 451.974 429.128 L 500.084 401.178 Z M 290.954 406.308 C 300.254 422.808 308.714 436.758 329.054 436.758 C 348.504 436.758 360.774 429.148 360.774 399.558 L 360.774 198.258 L 419.974 198.258 L 419.974 400.358 C 419.974 461.658 384.034 489.558 331.574 489.558 C 284.174 489.558 256.724 465.028 242.764 435.483 L 290.954 406.308 Z" style="stroke-width: 1; fill: rgb(232, 234, 237);"/>
</svg>